<svg width="41" height="39" viewBox="0 0 41 39" fill="none" xmlns="http://www.w3.org/2000/svg">
<path id="Vector" fill-rule="evenodd" clip-rule="evenodd" d="M40.1236 16.7378C40.1236 7.99707 31.1763 0.884338 20.1783 0.884338C9.18017 0.884338 0.23291 7.99707 0.23291 16.7378C0.23291 24.5758 7.33688 31.141 16.9123 32.3807C17.5629 32.5181 18.4471 32.8001 18.6696 33.344C18.8715 33.8384 18.8023 34.6131 18.735 35.1112C18.735 35.1112 18.5013 36.4902 18.4509 36.7832L18.4434 36.8249C18.3479 37.353 18.106 38.6917 20.1783 37.838C22.3076 36.9608 31.6643 31.2124 35.8481 26.4931C38.7383 23.3891 40.1236 20.2319 40.1236 16.7378ZM33.487 21.7867H27.8786C27.7794 21.7867 27.6843 21.7481 27.6142 21.6794C27.5441 21.6108 27.5047 21.5176 27.5047 21.4205V12.8866C27.5047 12.7895 27.5441 12.6963 27.6142 12.6276C27.6843 12.559 27.7794 12.5204 27.8786 12.5204L33.487 12.5204C33.5861 12.5204 33.6812 12.559 33.7513 12.6276C33.8215 12.6963 33.8609 12.7895 33.8609 12.8866V14.2729C33.8609 14.3701 33.8215 14.4632 33.7513 14.5319C33.6812 14.6006 33.5861 14.6392 33.487 14.6392L29.6789 14.6392V16.0767H33.487C33.5861 16.0767 33.6812 16.1153 33.7513 16.184C33.8215 16.2527 33.8609 16.3459 33.8609 16.443V17.8513C33.8609 17.9484 33.8215 18.0416 33.7513 18.1102C33.6812 18.1789 33.5861 18.2175 33.487 18.2175H29.6789V19.6569H33.487C33.5861 19.6569 33.6812 19.6955 33.7513 19.7642C33.8215 19.8329 33.8609 19.926 33.8609 20.0232V21.4076C33.8626 21.4568 33.8542 21.5058 33.8362 21.5517C33.8182 21.5977 33.791 21.6396 33.7561 21.6749C33.7212 21.7103 33.6794 21.7385 33.6331 21.7577C33.5869 21.7769 33.5372 21.7867 33.487 21.7867ZM13.0246 21.6794C12.9544 21.7481 12.8593 21.7867 12.7602 21.7867L12.7733 21.7812H7.16486C7.0657 21.7812 6.9706 21.7426 6.90048 21.6739C6.83036 21.6053 6.79096 21.5121 6.79096 21.415L6.79096 12.8939C6.79096 12.7968 6.83036 12.7037 6.90048 12.635C6.9706 12.5663 7.0657 12.5277 7.16486 12.5277H8.57818C8.67734 12.5277 8.77245 12.5663 8.84256 12.635C8.91268 12.7037 8.95207 12.7968 8.95207 12.8939V19.6697H12.7602C12.8593 19.6697 12.9544 19.7083 13.0246 19.777C13.0947 19.8457 13.1341 19.9389 13.1341 20.036V21.4205C13.1341 21.5176 13.0947 21.6108 13.0246 21.6794ZM16.1327 12.5149H14.7194C14.5088 12.5149 14.338 12.6821 14.338 12.8885V21.415C14.338 21.6213 14.5088 21.7885 14.7194 21.7885H16.1327C16.3433 21.7885 16.5141 21.6213 16.5141 21.415V12.8885C16.5141 12.6821 16.3433 12.5149 16.1327 12.5149ZM24.349 12.513H25.7623C25.8121 12.513 25.8613 12.5227 25.9072 12.5416C25.953 12.5605 25.9946 12.5881 26.0294 12.6229C26.0642 12.6577 26.0916 12.6989 26.1099 12.7442C26.1283 12.7895 26.1372 12.8379 26.1362 12.8866V21.382C26.1362 21.4791 26.0968 21.5723 26.0267 21.641C25.9566 21.7097 25.8615 21.7483 25.7623 21.7483H24.3565C24.3225 21.7477 24.2886 21.7434 24.2555 21.7354H24.1677L24.1452 21.7208C24.1071 21.6952 24.0741 21.6629 24.048 21.6256L20.0605 16.3514V21.4662C20.0605 21.5634 20.0211 21.6565 19.9509 21.7252C19.8808 21.7939 19.7857 21.8325 19.6866 21.8325H18.2714C18.1722 21.8325 18.0771 21.7939 18.007 21.7252C17.9369 21.6565 17.8975 21.5634 17.8975 21.4662V12.9397C17.8975 12.8426 17.9369 12.7494 18.007 12.6808C18.0771 12.6121 18.1722 12.5735 18.2714 12.5735H19.8548L19.8754 12.5845H19.8866L19.9072 12.5991H19.9184L19.9389 12.6156L19.9614 12.6376C19.9734 12.6492 19.9841 12.6621 19.9931 12.676L23.9751 17.9447V12.8793C23.9751 12.7822 24.0145 12.689 24.0846 12.6203C24.1547 12.5516 24.2499 12.513 24.349 12.513Z" fill="white"/>
</svg>
